<svg xmlns="http://www.w3.org/2000/svg" viewBox="0 0 50 50"><defs><style>.cls-1{fill:#def4ff;}.cls-2{fill:#1995f2;}</style></defs><g id="Layer_2" data-name="Layer 2"><g id="Layer_1-2" data-name="Layer 1"><rect class="cls-1" width="50" height="50" rx="25"/><path class="cls-2" d="M20.8,24.8,28.57,17a1.09,1.09,0,0,0,.33-.8,1.12,1.12,0,0,0-.33-.81l-.68-.68a1.14,1.14,0,0,0-.8-.33,1.16,1.16,0,0,0-.81.33L17,24a1.15,1.15,0,0,0,0,1.61l9.24,9.25a1.16,1.16,0,0,0,.81.33,1.14,1.14,0,0,0,.8-.33l.68-.68a1.13,1.13,0,0,0,0-1.61Z"/></g></g></svg>