<svg xmlns="http://www.w3.org/2000/svg" viewBox="0 0 292 287"><defs><style>.cls-1{fill:#d31930;}.cls-2{fill:#fefefe;}</style></defs><g id="Layer_2" data-name="Layer 2"><g id="Layer_1-2" data-name="Layer 1"><ellipse class="cls-1" cx="146" cy="143.5" rx="146" ry="143.5"/><path class="cls-2" d="M146.86,115.89c25.87.17,48.76,8.72,68.89,24.78,4.91,3.92,4.92,7.62.61,12.18-4.76,5.05-9.69,9.94-14.29,15.14-3,3.43-6,3.73-9.44,1a99.33,99.33,0,0,0-18.23-11.65c-2.49-1.22-3.27-3.63-3.38-6.23-.13-3.48-.61-7-.14-10.44.64-4.58-1.78-5.62-5.44-6.27a100.79,100.79,0,0,0-42,1c-3,.73-3.71,2-3.6,4.72.13,3.15-.24,6.33.09,9.45.52,4.79-.68,8.16-5.58,10-5.27,2-9.56,5.68-13.79,9.33-3.71,3.2-7.53,2.64-10.71-.38-5.23-5-10-10.38-15.08-15.54-3.23-3.29-3.07-6.23.33-9.31a104,104,0,0,1,41.42-23.24A105.74,105.74,0,0,1,146.86,115.89Z"/></g></g></svg>