<?xml version="1.0" encoding="UTF-8"?><svg xmlns="http://www.w3.org/2000/svg" viewBox="0 0 260 260"><defs><style>.d{fill:#eefff5;}.e{fill:#0bbc49;}.f{fill:#13c95d;}</style></defs><g id="a"/><g id="b"><g id="c"><rect class="d" x="0" y="0" width="260" height="260" rx="130" ry="130"/><g><path class="f" d="M90.06,170.68c-10.48-.04-20.96-.22-31.44-.06-3.49,.05-4.56-1.07-4.54-4.54,.12-23.96,.03-47.92,.1-71.88,0-1.37-1.13-3.49,1.5-4,.87,2.2,2.81,1.37,4.32,1.39,7.81,.07,15.63,.03,23.45,.03q7.29,0,7.02,7.28c-7.82-.07-15.64-.03-23.45-.27-3.3-.1-3.84,1.48-3.8,4.26,.11,8.32,.03,16.64,.03,24.96,.02,18.27,9.24,29.73,27,33.56,3.26-.03,6.52-.07,9.79-.1,13.86-3.31,22.67-11.61,25.52-25.8,1.62-3.47,1.45-6.9-.18-10.31-1.05-11.28-11.93-23.41-22.78-25.43-1.18-.22-2.31-.39-3.08,.84-1.77-3.53-.85-7.16-.43-10.78,12.47,2.26,22.71,8.06,29.63,18.94,1.79,2.81,2.68,1.23,3.78-.4,6.29-9.39,14.95-15.38,26.01-17.64,2.62-.53,3.15-1.9,3.09-4.09,2.03,4.62,6.06,2.61,9.41,2.84,10.15,.08,20.3,.42,30.43,.13,4.59-.13,5.5,1.45,5.47,5.7-.19,23.13-.24,46.26,.03,69.39,.06,4.98-1.58,6.01-6.23,5.98-9.95-.06-19.94-.81-29.88,.43-.07-3.25-.14-6.49-.21-9.74,7.98,.11,15.95,.18,23.93,.35,2.3,.05,3.33-.81,3.31-3.18-.11-10.81,.4-21.66-.34-32.42-.98-14.28-14.48-27.02-27.05-26.5-3.14-1.33-6.23-2.1-8.87,1-.78-1.21-1.92-1.06-3.11-.84-11.22,2.09-21.88,14-22.81,25.5-1.51,3.34-1.79,6.7-.16,10.09,2.11,12.87,9.88,20.82,21.87,25.01,1.66,.58,4.03,1.79,4.13-1.76,2.09,4.03,.68,8.26,.75,12.41-12.59-2.77-23.33-8.33-30.52-19.61-1.74-2.72-2.71,.18-3.45,1.25-6.28,8.98-14.67,14.8-25.42,16.99-2.38,.49-3.55,1.45-3.29,3.9-2.07-4.65-6.15-2.62-9.54-2.87Z"/><path class="e" d="M171.04,89.48c-3.35-.23-7.38,1.78-9.41-2.84-.62-1.54-1.18-3.09-1.85-4.6-5.17-11.67-14.16-18.4-26.84-19.18-10.09-.62-20.24-.06-30.36-.21-2.91-.04-3.7,1.07-3.64,3.79,.17,7.8,.13,15.6,.18,23.4-.43,3.62-1.34,7.25,.43,10.78,3.16,11.88,10.52,19.9,22.08,24.07,.89,1.19,2.1,.95,3.31,.77,.07-.25,.23-.34,.48-.26,1.63,3.41,1.8,6.84,.18,10.31-.68-.09-1.36-.18-2.04-.26-.39-.43-.68-.32-.92,.15-1.68,.71-3.43,1.29-5.04,2.15-9.62,5.12-16.57,12.24-17.53,23.76-3.26,.03-6.52,.07-9.79,.1,2.42-13.46,9.5-23.83,21.53-31.14-11.48-7.3-19.13-16.47-20.81-29.72,.09-.11,.27-.26,.25-.31-.11-.22-.28-.41-.43-.61-.29-.17-.39-.41-.31-.73q.27-7.28-7.02-7.28c-7.82,0-15.63,.04-23.45-.03-1.52-.01-3.45,.81-4.32-1.39,9.57-.89,19.16-.48,28.72-.28,4.93,.11,6-1.55,5.98-6.18-.04-9.71-.89-19.46,.5-29.15,.3-.03,.51-.19,.63-.47,5.44-.88,10.93-.37,16.39-.37,20.58,.03,41.15,.2,61.73,.32,.13,.31,.37,.48,.71,.52,.09,.32,.19,.65,.28,.97,.01,.43,.02,.86,.03,1.28l.38,32.64Z"/><path class="e" d="M90.06,170.68c3.39,.25,7.47-1.77,9.54,2.87,2.67,9.02,8.06,15.95,16.05,20.88,.33,.67,.87,.92,1.6,.84,1.29-.06,2.4,.39,3.36,1.23,.64,1.03,1.59,1,2.61,.77,12.83,.1,25.66,.2,38.49,.31l.57-.86c0-8.57,.01-17.14,.02-25.71-.07-4.15,1.35-8.39-.75-12.41-3.8-11.58-11.29-19.48-23.01-23.2-.24-.48-.54-.58-.92-.14l-2.08,.09c-1.62-3.39-1.35-6.75,.16-10.09,13.95-2.64,21.95-11.52,25.91-24.65,2.65-3.1,5.73-2.33,8.87-1-1.97,13.39-9.37,23.14-21.05,30.49,12.07,7.37,19.39,17.51,21.2,31.27,.07,3.25,.14,6.49,.21,9.74-.07,11.1-.14,22.21-.22,33.31-.03,.34-.06,.67-.09,1.01l-.06,.16c-26.59,0-53.17,0-79.76,0-1.05-9.48-.19-19-.47-28.49-.06-2.13-.14-4.26-.21-6.4Z"/><path class="f" d="M90.74,205.57c26.59,0,53.17,0,79.76,0-.77,1.67-2.3,1.01-3.49,1.02-24.26,.04-48.51,.04-72.77,0-1.19,0-2.72,.66-3.49-1.01Z"/><path class="f" d="M91.53,54.12c-.12,.28-.33,.44-.63,.47-.13-.62,.09-.75,.63-.47Z"/><path class="f" d="M170.35,54.59c-.34-.03-.58-.21-.71-.52,.58-.3,.81-.12,.71,.52Z"/><path class="f" d="M170.67,56.84c-.01-.43-.02-.86-.03-1.28,.59,.41,.53,.84,.03,1.28Z"/><path class="f" d="M170.56,205.42c.03-.34,.06-.67,.09-1.01,.1,.26,.21,.52,.27,.79,0,.05-.23,.15-.36,.22Z"/><path class="f" d="M121.62,124.69c1.21-.23,2.3,.09,3.31,.77-1.2,.18-2.42,.42-3.31-.77Z"/><path class="f" d="M90.99,100.55c-.06-.31-.13-.61-.19-.92,.15,.2,.32,.39,.43,.61,.03,.05-.16,.2-.25,.31Z"/><path class="f" d="M123.54,135.25l-.43,.26-.49-.1c.24-.47,.53-.59,.92-.15Z"/><path class="f" d="M120.61,196.51c.98-.13,1.89,.01,2.61,.77-1.01,.23-1.97,.26-2.61-.77Z"/><path class="f" d="M138.54,135.4l-.49,.1-.43-.25c.38-.43,.68-.33,.92,.14Z"/><path class="f" d="M115.66,194.44c.53,.28,1.06,.56,1.59,.84-.72,.08-1.27-.18-1.59-.84Z"/><path class="f" d="M161.71,197.59c.19-.29,.38-.58,.57-.86-.19,.29-.38,.58-.57,.86Z"/></g></g></g></svg>