<svg xmlns="http://www.w3.org/2000/svg" viewBox="0 0 292 287"><defs><style>.cls-1{fill:#fff;}.cls-2{fill:#4a90e2;}</style></defs><g id="Layer_2" data-name="Layer 2"><g id="Layer_1-2" data-name="Layer 1"><ellipse class="cls-1" cx="146" cy="143.5" rx="146" ry="143.5"/><path class="cls-2" d="M172.25,155.21V135.92l-41,41a26.24,26.24,0,0,0,41-21.71Z"/><path class="cls-2" d="M188.19,139.52H183a3,3,0,0,0-3,3v10.69a33.91,33.91,0,0,1-53,28l-8,8a44.45,44.45,0,0,0,21.42,8.87v7.57H117a3,3,0,0,0-3,3V214a3,3,0,0,0,3,3h58a3,3,0,0,0,3-3v-5.23a3,3,0,0,0-3-3H151.65v-7.57c22.2-2.8,39.58-22.51,39.58-44.87V142.56A3,3,0,0,0,188.19,139.52Z"/><path class="cls-2" d="M203.24,81.7a8.38,8.38,0,0,0-11.83,0l-19.16,19.16V96.25a26.25,26.25,0,0,0-52.5,0v57.11l-6.92,6.92a33.94,33.94,0,0,1-.75-7V142.56a3,3,0,0,0-3-3h-5.23a3,3,0,0,0-3,3v10.69a43.89,43.89,0,0,0,3.07,16L88.76,184.35a8.37,8.37,0,0,0,11.83,11.83L203.24,93.53A8.36,8.36,0,0,0,203.24,81.7Z"/></g></g></svg>