<svg xmlns="http://www.w3.org/2000/svg" viewBox="0 0 292 287"><defs><style>.cls-1{fill:#4a90e2;}.cls-2{fill:#fff;}</style></defs><g id="Layer_2" data-name="Layer 2"><g id="Layer_1-2" data-name="Layer 1"><ellipse class="cls-1" cx="146" cy="143.5" rx="146" ry="143.5"/><path class="cls-2" d="M212.52,202.2a4.92,4.92,0,0,1-4.25-1.31c-1-.87-2.11-1.6-3.17-2.39a43.18,43.18,0,0,0-4.57-3.5,17,17,0,0,0-2.88-2.26c-4.89-3.89-9.8-7.73-14.83-11.43a7.34,7.34,0,0,0-1.85-1.43c-1.79-1.57-3.7-3-5.62-4.37L172,173a36.54,36.54,0,0,0-3.95-3.06c-.69-.56-1.37-1.14-2.08-1.68l-12.75-9.76-.41-.32c-2.21-1.87-4.49-3.65-6.86-5.3a18.72,18.72,0,0,0-2.9-2.27,45.55,45.55,0,0,0-4.36-3.36c-2.73-2.15-5.46-4.32-8.21-6.44-4.59-3.54-9.21-7.06-13.81-10.58a9.73,9.73,0,0,0-2.13-1.65,59.41,59.41,0,0,0-5.42-4.2,34.83,34.83,0,0,0-3.93-3,24.62,24.62,0,0,0-3.33-2.6c-4.86-3.87-9.76-7.7-14.75-11.39l-.63-.47c-2-1.71-4.12-3.38-6.31-4.9A36.14,36.14,0,0,0,76.38,99c-.62-.5-1.22-1-1.85-1.51C72.4,95.84,72,94.6,73,92.08c1-1.29,2-2.58,3-3.86s1.81-2.64,3.3-3.39a5,5,0,0,1,4.56,1.33c.9.79,1.91,1.45,2.87,2.17a56.24,56.24,0,0,0,4.84,3.74,18.15,18.15,0,0,0,3,2.35c2,1.55,3.91,3.09,5.86,4.65a1.63,1.63,0,0,0,1.4.22h51.34c1.16,0,2.32,0,3.48.06a11,11,0,0,1,10.92,8.36c.58,2.1.29,4.25.43,6.38v36.82c.06.81.83,1,1.32,1.36,1.94,1.53,3.91,3,6.1,4.66-.12-2.23.13-4.13-.16-6v-7.5a43.28,43.28,0,0,0,0-7.29v-7.23c.36-1.22-.13-2.51.3-3.73a61.09,61.09,0,0,0,5.53-3.82,5.78,5.78,0,0,0,1.66-1.12c5-3.3,9.92-6.67,14.77-10.18l4.59-2.92,2.66-.5,1.85.3a8.25,8.25,0,0,1,5.41,5.18l.12,2v7.25q-.16,3.76,0,7.54v7.24c-.11,2.42-.11,4.85,0,7.27v7.51c-.11,2.43-.11,4.85,0,7.28V173l-.36,2.41A8.69,8.69,0,0,1,207,180c-.39,0-.81-.07-1.26.43l6.36,4.84a26.62,26.62,0,0,0,3.33,2.57c.72.59,1.43,1.2,2.16,1.77,1.91,1.49,2.3,2.82,1.49,5.14q-1.69,2.16-3.38,4.33A9.33,9.33,0,0,1,212.52,202.2Z"/><path class="cls-2" d="M79.76,158.16v-7.24q.17-3.78,0-7.54v-7.24c.11-2.43.11-4.85,0-7.28v-7.51l.11-1,1.55,1.06c1.81,1.55,3.71,3,5.66,4.38a39.42,39.42,0,0,0,4.06,3.12,20.89,20.89,0,0,0,3.21,2.49q7.31,5.85,14.82,11.45a1.48,1.48,0,0,0,.76.59c2.17,1.84,4.42,3.56,6.73,5.21a19.72,19.72,0,0,0,3,2.3,41.16,41.16,0,0,0,4.26,3.31l14.66,11.36,7.42,5.71a10.84,10.84,0,0,0,2.16,1.65,61.1,61.1,0,0,0,5.1,4,47.56,47.56,0,0,0,4.3,3.3,22.53,22.53,0,0,0,3.19,2.48l3.08,2.52a11,11,0,0,1-5.89,2.3c-1.56.08-3.12.12-4.67.18a43.28,43.28,0,0,0-7.29,0h-7.23a45.32,45.32,0,0,0-7.55,0H124a43.16,43.16,0,0,0-7.28,0h-7.5a42.26,42.26,0,0,0-7.29,0h-7.5c-1.51-.07-3-.12-4.53-.21a11,11,0,0,1-9.42-7.24c-.84-2.4-.46-4.87-.68-7.3v-7.51C79.87,163,79.87,160.58,79.76,158.16Z"/></g></g></svg>