<svg xmlns="http://www.w3.org/2000/svg" viewBox="0 0 292 287"><defs><style>.cls-1{fill:#fff;}.cls-2{fill:#4a90e2;}</style></defs><g id="Layer_2" data-name="Layer 2"><g id="Layer_1-2" data-name="Layer 1"><ellipse class="cls-1" cx="146" cy="143.5" rx="146" ry="143.5"/><path class="cls-2" d="M129.59,192.49h-8a43.51,43.51,0,0,0-8.07,0h-8.34a43.51,43.51,0,0,0-8.07,0H88.73a21.18,21.18,0,0,0-4.57-.18,12.17,12.17,0,0,1-11.57-11.88c0-1.44-.06-2.87-.09-4.31V167.8q.19-4.05,0-8.08v-8q.19-4.19,0-8.37v-8q.19-4,0-8.07v-8.33q.19-4,0-8.08c0-1.19.11-2.38.06-3.56A12.36,12.36,0,0,1,85.3,94.45c1.14,0,2.28,0,3.43-.06h65.32l3.72.06c6.16.13,10.66,3.53,12.26,9.29.65,2.33.32,4.72.48,7.08v65.32c-.18,2.8.21,5.64-.86,8.38-1.74,4.43-5.22,6.88-9.57,7.86a27.35,27.35,0,0,1-6,.12,43.51,43.51,0,0,0-8.07,0h-8A46.8,46.8,0,0,0,129.59,192.49Z"/><path class="cls-2" d="M219.49,176.14c-.05.74-.11,1.48-.17,2.21a9.81,9.81,0,0,1-6.08,5.78l-1.91.11-2.4-.3c-2.23-.8-3.9-2.51-6-3.58q-7.91-5.75-16.09-11.08a12.16,12.16,0,0,0-2.67-1.83l-5.63-4v-3.73a42.77,42.77,0,0,0,0-8.08v-8.33a43.62,43.62,0,0,0,0-8.08v-8c.42-1.35-.12-2.78.33-4.14a61.35,61.35,0,0,0,6.14-4.23,6.12,6.12,0,0,0,1.84-1.25c5.53-3.67,11-7.4,16.39-11.3l5.1-3.23,3-.52,2.05.28a9.32,9.32,0,0,1,6,5.75c0,.74.09,1.49.14,2.23v8q-.19,4.19,0,8.36v8.05c-.13,2.69-.13,5.37,0,8.06v8.34q-.19,4,0,8.07v8C219.37,170.57,219.38,173.36,219.49,176.14Z"/></g></g></svg>