<svg xmlns="http://www.w3.org/2000/svg" viewBox="0 0 50 50"><defs><style>.cls-1{fill:#ffe9e9;}.cls-2{fill:#e80000;}</style></defs><g id="Layer_2" data-name="Layer 2"><g id="Layer_1-2" data-name="Layer 1"><rect class="cls-1" width="50" height="50" rx="25"/><path class="cls-2" d="M32.17,16.8H28.41v-.68a2,2,0,0,0-2-2.05H23.63a2,2,0,0,0-2,2.05v.68H17.83a1.72,1.72,0,0,0-1.71,1.71v1.37a.68.68,0,0,0,.68.68H33.2a.68.68,0,0,0,.68-.68V18.51A1.72,1.72,0,0,0,32.17,16.8ZM23,16.12a.69.69,0,0,1,.68-.68h2.74a.69.69,0,0,1,.68.68v.68H23Z"/><path class="cls-2" d="M17.42,21.93a.22.22,0,0,0-.22.22L17.77,34a2,2,0,0,0,2,2H30.19a2,2,0,0,0,2-2l.57-11.83a.22.22,0,0,0-.22-.22Zm10.31,1.7a.69.69,0,0,1,1.37,0v8.88a.69.69,0,1,1-1.37,0Zm-3.41,0a.68.68,0,1,1,1.36,0v8.88a.68.68,0,1,1-1.36,0Zm-3.42,0a.69.69,0,0,1,1.37,0v8.88a.69.69,0,1,1-1.37,0Z"/></g></g></svg>